<svg
    width="100%"
    height="100%"
    viewBox="0 0 80 28"
    class="dark:invert dark:grayscale"
    xmlns="http://www.w3.org/2000/svg"
    style="fill-rule: evenodd; clip-rule: evenodd; stroke-linejoin: round; stroke-miterlimit: 2"
  >
    <path
      d="M18.109,8.25c-0.666,-0.542 -1.333,-0.943 -2,-1.203c-0.666,-0.261 -1.312,-0.391 -1.937,-0.391c-0.792,0 -1.438,0.188 -1.938,0.563c-0.5,0.375 -0.75,0.864 -0.75,1.468c0,0.417 0.125,0.761 0.375,1.032c0.25,0.271 0.579,0.505 0.985,0.703c0.406,0.198 0.864,0.37 1.375,0.515c0.51,0.146 1.015,0.303 1.515,0.469c2,0.667 3.464,1.558 4.391,2.672c0.927,1.115 1.391,2.568 1.391,4.359c-0,1.209 -0.203,2.303 -0.61,3.282c-0.406,0.979 -1,1.817 -1.781,2.515c-0.781,0.698 -1.74,1.24 -2.875,1.625c-1.135,0.386 -2.422,0.578 -3.859,0.578c-2.98,0 -5.74,-0.885 -8.282,-2.656l2.625,-4.937c0.917,0.812 1.823,1.416 2.719,1.812c0.896,0.396 1.781,0.594 2.656,0.594c1,-0 1.745,-0.229 2.235,-0.688c0.489,-0.458 0.734,-0.979 0.734,-1.562c0,-0.354 -0.062,-0.661 -0.187,-0.922c-0.125,-0.26 -0.334,-0.5 -0.625,-0.719c-0.292,-0.218 -0.672,-0.422 -1.141,-0.609c-0.469,-0.188 -1.036,-0.396 -1.703,-0.625c-0.792,-0.25 -1.568,-0.526 -2.328,-0.828c-0.761,-0.302 -1.438,-0.703 -2.031,-1.203c-0.594,-0.5 -1.073,-1.13 -1.438,-1.891c-0.365,-0.76 -0.547,-1.724 -0.547,-2.891c0,-1.166 0.193,-2.223 0.578,-3.171c0.386,-0.948 0.927,-1.761 1.625,-2.438c0.698,-0.677 1.552,-1.203 2.563,-1.578c1.01,-0.375 2.14,-0.563 3.39,-0.563c1.167,0 2.386,0.162 3.657,0.485c1.27,0.323 2.489,0.797 3.656,1.422l-2.438,4.781Z"
      style="fill: #111827; fill-rule: nonzero; stroke: #111827; stroke-width: 0.83px"
    />
    <path
      d="M39.234,8.25c-0.666,-0.542 -1.333,-0.943 -2,-1.203c-0.666,-0.261 -1.312,-0.391 -1.937,-0.391c-0.792,0 -1.438,0.188 -1.938,0.563c-0.5,0.375 -0.75,0.864 -0.75,1.468c0,0.417 0.125,0.761 0.375,1.032c0.25,0.271 0.578,0.505 0.985,0.703c0.406,0.198 0.864,0.37 1.375,0.515c0.51,0.146 1.015,0.303 1.515,0.469c2,0.667 3.464,1.558 4.391,2.672c0.927,1.115 1.391,2.568 1.391,4.359c-0,1.209 -0.203,2.303 -0.61,3.282c-0.406,0.979 -1,1.817 -1.781,2.515c-0.781,0.698 -1.74,1.24 -2.875,1.625c-1.135,0.386 -2.422,0.578 -3.859,0.578c-2.98,0 -5.74,-0.885 -8.282,-2.656l2.625,-4.937c0.917,0.812 1.823,1.416 2.719,1.812c0.896,0.396 1.781,0.594 2.656,0.594c1,-0 1.745,-0.229 2.235,-0.688c0.489,-0.458 0.734,-0.979 0.734,-1.562c0,-0.354 -0.062,-0.661 -0.187,-0.922c-0.125,-0.26 -0.334,-0.5 -0.625,-0.719c-0.292,-0.218 -0.672,-0.422 -1.141,-0.609c-0.469,-0.188 -1.036,-0.396 -1.703,-0.625c-0.792,-0.25 -1.568,-0.526 -2.328,-0.828c-0.761,-0.302 -1.438,-0.703 -2.032,-1.203c-0.593,-0.5 -1.072,-1.13 -1.437,-1.891c-0.365,-0.76 -0.547,-1.724 -0.547,-2.891c0,-1.166 0.193,-2.223 0.578,-3.171c0.386,-0.948 0.927,-1.761 1.625,-2.438c0.698,-0.677 1.552,-1.203 2.563,-1.578c1.01,-0.375 2.14,-0.563 3.39,-0.563c1.167,0 2.386,0.162 3.657,0.485c1.27,0.323 2.489,0.797 3.656,1.422l-2.438,4.781Z"
      style="fill: #111827; fill-rule: nonzero; stroke: #111827; stroke-width: 0.83px"
    />
    <path
      d="M46.359,25.781l4,-23.562l6.063,-0l4.719,12.562l4.687,-12.562l6.063,-0l4,23.562l-6.094,0l-2.031,-13.562l-5.563,13.562l-2.437,0l-5.282,-13.562l-2.031,13.562l-6.094,0Z"
      style="fill: #111827; fill-rule: nonzero; stroke: #111827; stroke-width: 0.83px"
    />
  </svg>
